<svg xmlns="http://www.w3.org/2000/svg" width="40" height="40" viewBox="0 0 40 40" class="tc-AppSelectorButtons__icon"><g fill="none" fill-rule="evenodd"><path fill="#FFFFFE" d="M28.358 28.314a3.323 3.323 0 0 1-4.702 0 3.31 3.31 0 0 1-.97-2.166c-.003-.063-.006-.123-.006-.183a2.701 2.701 0 0 0-2.309-2.674c-.04-.004-.079-.01-.12-.013-.038-.006-.072-.006-.11-.01h-.032c-.044-.003-.088-.006-.13-.006-.047 0-.091.003-.138.006l-.133.01a2.697 2.697 0 0 0-2.419 2.687c0 .05 0 .101-.003.155v.032a3.328 3.328 0 0 1-.973 2.162 3.326 3.326 0 1 1-2.362-5.678h.01c.176 0 .35-.015.518-.05.13-.025.252-.057.372-.101l.013-.003a2.715 2.715 0 0 0 1.787-2.397v-.151c.004-.05 0-.098-.003-.15a2.7 2.7 0 0 0-2.687-2.55h-.025a3.326 3.326 0 1 1 3.344-3.37v.04a2.687 2.687 0 0 0 .83 1.953h.003c.06.057.12.11.183.164a4.178 4.178 0 0 0 .42.275c.08.04.159.079.24.11.12.05.247.089.376.12.032.01.067.016.098.022l.05.01c.045.01.09.016.133.022.042.003.083.01.124.013l.053.006.054.003.07.003h.11c.034 0 .07 0 .104-.003a2.394 2.394 0 0 0 .391-.05c.086-.016.168-.038.247-.06.329-.102.632-.263.897-.47a2.828 2.828 0 0 0 .714-.866c.056-.114.107-.228.151-.348v-.003a2.601 2.601 0 0 0 .152-.9v-.072a3.33 3.33 0 0 1 5.681-2.277 3.33 3.33 0 0 1-.003 4.705c-.648.647-1.5.972-2.35.972-.09 0-.18.005-.267.014l-.055.008c-.07.008-.139.017-.206.03l-.004.001a2.7 2.7 0 0 0-2.165 2.499v.013c-.003.044-.003.094-.003.139a2.327 2.327 0 0 0 .025.353l.005.052c.007.048.018.093.027.14.009.04.015.08.024.119l.019.06a2.7 2.7 0 0 0 2.6 1.976c.85 0 1.702.325 2.35.976a3.323 3.323 0 0 1 0 4.701m3.957-8.379a8.729 8.729 0 0 0-.136-12.197c-3.363-3.36-8.78-3.41-12.196-.14-3.417-3.27-8.839-3.22-12.199.136-3.363 3.367-3.41 8.79-.133 12.206-3.268 3.417-3.218 8.832.14 12.193a8.726 8.726 0 0 0 12.195.145 8.722 8.722 0 0 0 12.19-.145c3.363-3.36 3.407-8.78.14-12.198"></path><path fill="#489EB4" d="M32.185 32.123l.006-.006a.043.043 0 0 0-.006.006m.01-.01l.005-.004a.052.052 0 0 1-.005.004m.02-.02l.004-.004-.004.004m.01-.01l.003-.003-.003.003m.02-.02l.002-.003-.002.003m.01-.01l.002-.003-.002.003m.01-.01c0-.001 0-.002.002-.003l-.003.003m.01-.01l.003-.003-.003.003m.01-.01l.002-.002-.002.001m.01-.01l.002-.002-.002.002m.01-.01l.001-.002s0 .002-.002.002m.01-.01l.002-.002-.002.002m.01-.01l.001-.002-.001.002m.019-.02l.002-.002-.002.002m.039-.04l.001-.003-.002.002m.01-.01l.002-.003-.002.003m.01-.01l.001-.003s0 .002-.002.003m.01-.01l.002-.003-.002.002m.01-.01l.002-.002-.003.002M32.447 31.85l.002-.003-.002.002m.009-.01l.003-.003a.023.023 0 0 1-.003.003m.01-.01l.002-.003-.003.003m.01-.01l.002-.003-.002.002m.01-.01l.002-.003-.003.004M32.502 31.789l.004-.004-.004.003m.01-.01c0-.002.001-.003.003-.003l-.003.003m.01-.01c0-.002 0-.003.002-.004l-.003.003m.01-.01l.002-.004c0 .002-.002.003-.003.004M32.55 31.736l.002-.003-.002.003m.009-.01l.003-.004-.003.004m.009-.01l.003-.004-.003.004m.009-.01c0-.002.002-.003.003-.005 0 .002-.002.003-.003.005M32.594 31.685l.004-.005-.004.005m.009-.01l.004-.005-.004.004m.009-.01l.004-.005-.004.005m.01-.01c0-.002.001-.004.003-.005l-.004.004m.009-.01l.004-.005-.004.005m.009-.01l.004-.005a.06.06 0 0 1-.004.005m.009-.01a.063.063 0 0 1 .004-.006l-.004.005m.009-.01c0-.002.002-.003.004-.005l-.004.005m.008-.01l.005-.006-.005.005m.009-.01l.005-.005-.005.005m.009-.01a.088.088 0 0 0 .005-.006l-.005.006m.008-.01l.006-.006-.006.006m.01-.01l.005-.008-.006.008m.008-.01l.007-.008a.187.187 0 0 0-.007.008m.017-.02l.007-.01-.007.01m.008-.01a8.723 8.723 0 0 0-.416-11.584l.002-.002a8.726 8.726 0 0 1 .414 11.586m-9.358-10.98a2.668 2.668 0 0 1-.064-.456c-.003-.049-.003-.095-.003-.143a2.186 2.186 0 0 0 .007.201c.01.136.03.268.06.397m-.063-.763v-.002.002m0-.008v-.002.002m0-.007v-.004.004m.001-.008v-.003.003m0-.008l.001-.004v.004m0-.008v-.003.003m0-.008l.001-.007v.007m0-.01l.001-.005v.004m0-.007v-.005.005m.001-.008V19.7v.005m0-.007l.001-.005v.005m0-.008v-.005.005m.004-.042l.001-.006v.006m0-.007v-.006.006m2.668-2.407h.004-.004"></path><path fill="#42A6C7" d="M26.005 34.69a8.692 8.692 0 0 1-6.019-2.412c.05-.044.101-.095.149-.142a8.7 8.7 0 0 0 2.551-5.988c-.003-.063-.006-.123-.006-.183a2.701 2.701 0 0 0-2.309-2.674c-.04-.004-.079-.01-.12-.013-.038-.006-.072-.006-.11-.01h-.032.032c.038.004.072.004.11.01.041.003.08.01.12.013a2.701 2.701 0 0 1 2.308 2.675c0 .059.004.12.007.182a3.31 3.31 0 0 0 .97 2.166c.649.65 1.5.975 2.352.975.85 0 1.701-.324 2.35-.975.65-.648.975-1.5.974-2.35 0-.851-.325-1.702-.974-2.351a3.307 3.307 0 0 0-2.35-.976c.08 0 .155-.007.234-.013l-.095.01a8.705 8.705 0 0 0 6.17-2.697 8.723 8.723 0 0 1 .416 11.584l-.008.01a11.61 11.61 0 0 1-.01.012l-.007.008-.002.002-.006.008-.003.004-.006.006-.003.004a.088.088 0 0 1-.01.01c0 .003-.003.004-.004.006l-.004.005-.005.005-.004.006-.004.005-.005.005a.063.063 0 0 0-.004.005l-.005.006-.004.005a.036.036 0 0 1-.005.005l-.004.005a.092.092 0 0 0-.005.006l-.004.004a.092.092 0 0 1-.005.006l-.004.005-.005.006-.004.004a.082.082 0 0 0-.005.006l-.004.005-.006.006a.04.04 0 0 1-.003.004l-.006.006c0 .002-.002.003-.003.005a.092.092 0 0 0-.006.006l-.003.004-.006.006-.003.004-.007.007-.002.003-.006.007-.004.004a.126.126 0 0 1-.006.006c0 .002-.002.003-.003.004l-.006.007a.034.034 0 0 1-.003.003l-.006.008c-.002 0-.002.001-.003.003l-.006.007-.004.003-.006.007a.028.028 0 0 1-.003.003l-.006.007-.003.004a.151.151 0 0 0-.007.007l-.002.002-.007.008-.003.003a.165.165 0 0 1-.009.01l-.007.008-.002.002-.007.008-.003.003-.007.007-.002.003-.007.008-.003.002-.007.008-.002.002-.008.008c0 .001 0 .002-.002.003l-.007.007-.002.003-.008.008-.002.002a.165.165 0 0 1-.01.01l-.007.008-.002.002-.007.008-.002.003-.008.008-.002.002-.008.008-.001.002-.009.008-.001.002-.008.008-.002.002a.097.097 0 0 1-.008.008s0 .002-.002.002l-.007.008-.002.002-.008.009-.002.001-.007.008-.003.003a.079.079 0 0 0-.007.007l-.003.003-.007.007-.002.003-.008.007-.002.003-.008.007-.002.003a.072.072 0 0 0-.007.007l-.003.003-.006.006-.004.004a455.056 455.056 0 0 0-.01.01l-.005.006c-.002 0-.003.002-.005.004l-.004.004-.006.006-.01.01a8.7 8.7 0 0 1-6.17 2.556m-8.719-8.537v-.032c.003-.054.003-.104.003-.155a2.697 2.697 0 0 1 2.42-2.687l.132-.01c.047-.003.091-.006.138-.006.04 0 .08.003.122.006-.038-.003-.076-.003-.112-.003-.05 0-.098 0-.148.003l-.133.01a2.697 2.697 0 0 0-2.419 2.687c0 .05 0 .101-.003.155v.032m6.03-6.009a3.353 3.353 0 0 1-.005-.058c-.003-.049-.003-.095-.003-.143v-.005-.004.004c0 .044 0 .091.003.139l.004.067m-.004-.345v-.013l.001-.008v-.002-.006-.002-.005-.004l.001-.004v-.003-.005l.001-.004v-.004-.003-.005l.001-.007v-.004l.001-.004v-.003-.005l.001-.003V19.7v-.002l.001-.005v-.003-.005-.002a.67.67 0 0 1 .003-.026v-.001l.001-.006v-.002l.001-.006v-.007a2.698 2.698 0 0 1-.012.164"></path><path fill="#D52331" d="M20.307 16.6a2.456 2.456 0 0 1 0 0m-1.59-.3"></path><path fill="#EA0029" d="M7.651 19.94a8.688 8.688 0 0 1-2.424-6.031 8.71 8.71 0 0 1 2.557-6.175 8.704 8.704 0 0 1 6.17-2.553c2.173 0 4.345.805 6.029 2.418-.05.041-.101.092-.149.139a8.682 8.682 0 0 0-2.551 6.019v.012c-.003.032-.003.064-.003.095v.04-.04a3.309 3.309 0 0 0-.973-2.308 3.318 3.318 0 0 0-2.354-.975 3.31 3.31 0 0 0-2.351.975 3.315 3.315 0 0 0-.974 2.35c0 .852.325 1.703.974 2.352.644.644 1.487.97 2.334.975h.025a2.7 2.7 0 0 1 2.687 2.552c.002.037.005.071.005.107 0-.036-.003-.07-.005-.107a2.7 2.7 0 0 0-2.687-2.552h-.025l-.161.01a8.676 8.676 0 0 0-5.985 2.549 1.974 1.974 0 0 0-.139.148"></path><path fill="#4570A9" d="M20.114 23.269l-.013-.001h.013"></path><path fill="#3D7CC9" d="M13.965 34.69a8.71 8.71 0 0 1-6.175-2.557 8.702 8.702 0 0 1-2.554-6.166A8.686 8.686 0 0 1 7.65 19.94c.041.047.089.095.133.139a8.647 8.647 0 0 0 5.965 2.548l-.057-.006c.06.006.127.01.19.013h.063l.006.003a3.311 3.311 0 0 0-2.34.976 3.32 3.32 0 0 0-.974 2.35c-.001.852.322 1.703.971 2.351.65.65 1.501.975 2.353.975a3.32 3.32 0 0 0 2.352-.975c.604-.6.926-1.38.973-2.162a8.67 8.67 0 0 0 2.7 6.126 8.694 8.694 0 0 1-6.021 2.412m.514-12.104"></path><path fill="#18618E" d="M19.986 32.278a8.67 8.67 0 0 1-2.7-6.126v-.032c.003-.054.003-.104.003-.155a2.697 2.697 0 0 1 2.42-2.687l.132-.01c.05-.003.098-.003.148-.003a1.693 1.693 0 0 1 .12.003h.032c.038.004.072.004.11.01.041.003.08.01.12.013a2.701 2.701 0 0 1 2.308 2.675c0 .059.004.12.007.182a8.7 8.7 0 0 1-2.551 5.988c-.048.047-.098.098-.149.142"></path><path fill="#553137" d="M13.96 22.637h-.009l-.006-.003h-.063c-.063-.003-.13-.007-.19-.013l.057.006a8.647 8.647 0 0 1-5.965-2.548c-.044-.044-.092-.092-.133-.139.041-.05.092-.101.14-.148a8.676 8.676 0 0 1 5.984-2.549l.16-.01h.026a2.7 2.7 0 0 1 2.687 2.552c.002.037.005.071.005.107a.63.63 0 0 1-.002.042v.151a2.715 2.715 0 0 1-1.787 2.397l-.013.003c-.12.041-.246.076-.372.101-.168.035-.342.05-.518.05"></path><path fill="#6DC0AA" d="M25.348000000000003 22.555999999999997a2.7 2.7 0 0 1-1.959-1.955v.001c.195.769.72 1.406 1.416 1.753h.002l.002.002c.17.084.35.151.539.199m-1.96-1.958l-.013-.058a1.579 1.579 0 0 0 .014.058m8.93-.663l-.002-.002c2.873-3.007 3.182-7.562.929-10.902 2.254 3.34 1.947 7.898-.927 10.904m-9.01-.002c0-.046 0-.092.002-.135-.003.043-.003.091-.003.135m2.682-2.7h0m.005 0h.013-.013m7.25-8.202l-.006-.01.006.01m-.008-.012l-.005-.008.005.008m-.008-.012l-.004-.006.004.006m-.008-.011c0-.002-.002-.004-.003-.005l.003.005m-.016-.024l-.001-.002.001.002m-.008-.011v-.002.002"></path><path fill="#6CCAB8" d="M26.008 22.637c-.226 0-.445-.028-.655-.08l-.005-.001a2.695 2.695 0 0 1 .66.08m-1.201-.28h-.002.002m-1.417-1.754v-.001l-.001-.003-.002-.005.003.01m8.927-.67a8.677 8.677 0 0 0-6.16-2.693h-.01c-.044-.003-.089-.003-.13-.003l-.009-.004a3.32 3.32 0 0 0 3.324-3.325 3.324 3.324 0 0 0-3.326-3.326c-.85 0-1.701.325-2.35.974a3.314 3.314 0 0 0-.976 2.277v-.067A8.71 8.71 0 0 0 19.983 7.6a8.683 8.683 0 0 1 6.024-2.418c2.233 0 4.466.853 6.172 2.557.379.38.716.785 1.01 1.21l.008.011v.002l.007.01.001.001a420.68 420.68 0 0 1 .008.012l.005.007.003.005.004.005.004.006.003.004.005.008.002.002.006.01c2.254 3.34 1.945 7.895-.928 10.902"></path><path fill="#00918A" d="M24.809 22.357l-.002-.001.002.001m-.004-.002a2.704 2.704 0 0 1-1.415-1.753l.018.06c.206.742.72 1.356 1.397 1.693m-1.418-1.762a2.69 2.69 0 0 1-.055-.303l.006.052c.007.048.018.093.027.14l.022.11m8.93-.655l-.002-.002.002-.002.002.002-.002.002m-7.591-2.38c.376-.204.807-.32 1.264-.323h.018c-.09 0-.18.004-.267.013l-.055.008c-.07.008-.139.017-.206.03l-.004.001a2.697 2.697 0 0 0-.75.27"></path><path fill="#00918A" d="M26.008 22.637c-.43 0-.838-.1-1.2-.28l-.001-.001h-.002a2.704 2.704 0 0 1-1.397-1.694l-.018-.06-.003-.01-.022-.11c-.01-.047-.02-.092-.027-.14l-.005-.052a3.133 3.133 0 0 1-.018-.147l-.004-.067c-.003-.048-.003-.095-.003-.14v-.003c0-.044 0-.092.003-.135a2.698 2.698 0 0 1 2.165-2.512h.004c.067-.014.137-.023.206-.031l.055-.008c.088-.009.177-.014.267-.014l.01.004c.04 0 .085 0 .13.003h.009a8.677 8.677 0 0 1 6.16 2.693l-.002.002.002.002a8.705 8.705 0 0 1-6.17 2.696l.095-.009c-.08.006-.155.013-.234.013"></path><path fill="#783036" d="M20.024 16.605h-.11l-.07-.003-.054-.003-.053-.006c-.041-.004-.082-.01-.124-.013-.044-.006-.088-.013-.132-.022l-.05-.01c-.032-.006-.067-.012-.099-.022a2.472 2.472 0 0 1-.375-.12 2.283 2.283 0 0 1-.24-.11 4.178 4.178 0 0 1-.42-.275 4.74 4.74 0 0 1-.184-.164h-.003a2.687 2.687 0 0 1-.83-1.952v-.04c0-.032 0-.064.003-.096v-.012a8.682 8.682 0 0 1 2.551-6.02c.048-.046.098-.097.149-.138.047.044.095.088.142.135a8.71 8.71 0 0 1 2.555 6.032v.139a2.601 2.601 0 0 1-.152.9v.003c-.044.12-.095.234-.151.347a2.828 2.828 0 0 1-.714.866c-.265.208-.568.37-.897.47a2.682 2.682 0 0 1-.247.06 2.38 2.38 0 0 1-.39.05c-.036.004-.07.004-.105.004"></path></g></svg>